Coordinates
version=1
nRows=7
nColumns=40
inDegrees=yes

Units are S.I. units (second, meters, Newtons, ...)
Angles are in degrees.

endheader
time	pelvis_tilt	pelvis_list	pelvis_rotation	pelvis_tx	pelvis_ty	pelvis_tz	hip_flexion_r	hip_adduction_r	hip_rotation_r	knee_angle_r	knee_angle_r_beta	ankle_angle_r	subtalar_angle_r	mtp_angle_r	hip_flexion_l	hip_adduction_l	hip_rotation_l	knee_angle_l	knee_angle_l_beta	ankle_angle_l	subtalar_angle_l	mtp_angle_l	lumbar_extension	lumbar_bending	lumbar_rotation	arm_flex_r	arm_add_r	arm_rot_r	elbow_flex_r	pro_sup_r	wrist_flex_r	wrist_dev_r	arm_flex_l	arm_add_l	arm_rot_l	elbow_flex_l	pro_sup_l	wrist_flex_l	wrist_dev_l
     46.35000000	     -5.28659866	     -7.71642882	      0.68360375	      1.07394410	      0.93004107	      0.47408351	     10.44568825	      7.18801715	    -14.31901453	     15.97895758	     15.97895758	     11.52042351	      2.57883924	     -0.41120289	     39.64231282	    -15.82111859	      4.28409708	     66.59489386	     66.59489386	      4.92491284	    -19.12909288	     16.17999981	    -12.75028622	      5.47218901	      3.41118388	     22.36463177	    -14.54988521	     -1.02294259	     82.98414134	     44.03450351	      0.00000000	      0.00000000	      4.15836247	     -7.53558978	     -8.42138646	     26.18043926	     46.85717870	      0.00000000	      0.00000000
     46.36171429	     -5.45687048	     -7.50326467	      0.89703300	      1.07229331	      0.93067166	      0.47363279	      9.71727015	      7.05158740	    -14.32370960	     15.11350654	     15.11350654	     11.52629240	      2.74536946	     -0.43831400	     40.51637273	    -15.14505755	      4.28974790	     63.81972983	     63.81972983	      5.54812437	    -19.05023332	     16.25398302	    -12.72850600	      5.25399750	      3.46430223	     24.52601398	    -14.56560752	     -1.06911501	     85.09050303	     43.99149400	      0.00000000	      0.00000000	      2.99984821	     -7.61129833	     -8.34319463	     25.27487026	     46.81957755	      0.00000000	      0.00000000
     46.37342857	     -5.62363881	     -7.31776082	      1.12920664	      1.07068035	      0.93113941	      0.47303347	      8.93886320	      6.94125485	    -14.34423986	     14.16803684	     14.16803684	     11.50007405	      3.02527813	     -0.52911496	     41.20304242	    -14.38830854	      4.45171435	     60.69693086	     60.69693086	      6.02312339	    -18.90541264	     16.13262912	    -12.73108599	      5.08150210	      3.47570703	     26.58784879	    -14.60015576	     -1.00026991	     87.47879078	     43.93870322	      0.00000000	      0.00000000	      1.81316836	     -7.65009764	     -8.20437524	     24.49685523	     46.76801776	      0.00000000	      0.00000000
     46.38514286	     -5.86372769	     -7.14303760	      1.36450651	      1.06903640	      0.93125532	      0.47215652	      8.26091635	      6.80977943	    -14.48766244	     13.24842987	     13.24842987	     11.33475082	      3.34557860	     -1.25102432	     41.74347664	    -13.62051462	      4.59863844	     57.18095400	     57.18095400	      5.99042514	    -18.68735253	     14.72431953	    -12.67847741	      4.96453473	      4.01155174	     28.18764592	    -15.40192351	     -0.82773631	     90.66559395	     43.91554252	      0.00000000	      0.00000000	      0.81463314	     -7.66579804	     -7.46882188	     24.15514369	     46.58555345	      0.00000000	      0.00000000
     46.39685714	     -6.17840070	     -6.90578507	      1.55458210	      1.06735008	      0.93107380	      0.47119519	      7.75704453	      6.59577848	    -14.46685123	     12.53734424	     12.53734424	     11.48544153	      3.50315855	     -1.24571367	     42.19588332	    -12.74358339	      4.84256341	     53.48319358	     53.48319358	      6.42236696	    -18.22835554	     14.70851051	    -12.46591510	      4.72597821	      4.21603115	     30.36575308	    -15.53871783	     -1.11931209	     92.07074139	     43.89865991	      0.00000000	      0.00000000	     -0.29468888	     -7.70665059	     -7.37224182	     23.77818346	     46.54271246	      0.00000000	      0.00000000
     46.40857143	     -6.33156331	     -6.79989929	      1.80158530	      1.06592235	      0.93092063	      0.47006081	      6.88753943	      6.53494912	    -14.73313154	     11.48240702	     11.48240702	     11.52930080	      4.18953901	     -1.37096604	     42.25584623	    -12.01803380	      5.17841697	     49.47111453	     49.47111453	      6.42604327	    -17.58679491	     13.57347055	    -12.51048995	      4.70617948	      4.11716599	     32.32994203	    -15.56265760	     -0.86614351	     94.80702848	     43.84917536	      0.00000000	      0.00000000	     -1.73634989	     -7.81195047	     -6.87831883	     23.96758564	     46.40158810	      0.00000000	      0.00000000
     46.42028571	     -6.48206021	     -6.64812981	      2.02056891	      1.06454637	      0.93042804	      0.46880914	      6.16221064	      6.39697653	    -14.87022250	     10.74002674	     10.74002674	     11.73451845	      4.56846238	     -1.44860615	     42.13060059	    -11.29978995	      5.47135769	     45.34638544	     45.34638544	      6.68070033	    -16.65760048	     13.04570525	    -12.49136117	      4.61614309	      4.22575613	     34.30142634	    -15.66311819	     -0.79295230	     96.75662575	     43.81735478	      0.00000000	      0.00000000	     -3.02693364	     -7.86150895	     -6.50989559	     24.07964204	     46.29439156	      0.00000000	      0.00000000
